<svg width="132" height="56" viewBox="0 0 132 56" fill="none" xmlns="http://www.w3.org/2000/svg">
<path d="M57.2873 45.8613V1.3757C57.6073 -1.11093 48.0208 0.645677 47.0039 0.143788C43.5761 -0.0957494 46.9011 53.2413 45.7699 54.4732C44.7758 56.5264 63.0803 56.4352 62.0862 54.4732C62.1777 43.8651 62.6347 49.7395 57.2873 45.8613Z" fill="white"/>
<path d="M39.8091 55.7836C38.8607 55.1904 29.0001 57.0041 29.32 54.6999C30.3255 53.6163 27.3547 0.00549095 30.4626 0.222216C31.411 0.815357 41.2716 -0.998286 40.9517 1.36287C39.8891 2.38946 42.8598 56.0003 39.8091 55.7836Z" fill="white"/>
<path d="M10.7057 0.153178C9.56315 0.780538 -0.537453 -1.27264 0.0224217 1.51056L5.73543 54.6081C5.92967 56.5928 20.5093 56.3305 20.7035 54.6081L26.4165 1.51056C26.9764 -1.2042 16.8072 0.677879 15.7332 0.153178C12.0083 0.153178 16.9786 36.6542 13.2537 36.6542C9.52886 36.6542 14.4078 0.233023 10.7057 0.153178Z" fill="white"/>
<path d="M121.191 55.7836C122.139 55.1904 132 57.0041 131.68 54.6999C130.674 53.6163 133.645 0.00549095 130.537 0.222216C129.589 0.815357 119.728 -0.998286 120.048 1.36287C121.077 2.38946 118.106 56.0003 121.191 55.7836Z" fill="white"/>
<path d="M101.467 0.153178C100.382 0.780538 90.2241 -1.27264 90.784 1.51056L96.497 54.6081C96.6913 56.5928 111.271 56.3305 111.465 54.6081L117.178 1.51056C117.738 -1.2042 107.569 0.677879 106.495 0.153178C102.77 0.153178 107.74 36.6542 104.015 36.6542C100.29 36.6542 105.204 0.233023 101.467 0.153178Z" fill="white"/>
<path d="M81.1284 55.7031C82.2024 55.11 92.3716 57.0947 91.8117 54.3457L86.0987 1.24818C86.4072 -1.03314 73.3358 0.655034 72.3875 0.10752C69.371 -0.268897 66.5488 53.2279 65.4519 54.3115C65.1205 56.5928 77.4263 56.3647 77.3692 54.437C77.8377 53.2963 76.1352 44.8897 78.6946 45.2205C81.9625 45.6311 77.7691 55.3381 81.1284 55.7031ZM77.3007 35.1713C76.9236 33.3576 75.9752 18.6432 78.5347 19.2021C80.5685 17.7078 78.9117 43.0874 77.3007 35.1713Z" fill="white"/>
</svg>
